<?xml version="1.0" standalone="no"?>
<!DOCTYPE svg PUBLIC "-//W3C//DTD SVG 20010904//EN"
 "http://www.w3.org/TR/2001/REC-SVG-20010904/DTD/svg10.dtd">
<svg version="1.0" xmlns="http://www.w3.org/2000/svg"
 width="537.000000pt" height="537.000000pt" viewBox="0 0 537.000000 537.000000"
 preserveAspectRatio="xMidYMid meet">
<metadata>
Created by potrace 1.14, written by Peter Selinger 2001-2017
</metadata>
<g transform="translate(0.000000,537.000000) scale(0.100000,-0.100000)"
fill="#000000" stroke="none">
<path d="M3690 5359 c-41 -4 -97 -9 -125 -13 -79 -9 -154 -16 -237 -21 -43 -2
-131 -16 -195 -31 -65 -14 -124 -27 -133 -29 -8 -2 -37 -9 -65 -15 -27 -6 -61
-14 -75 -16 -106 -20 -266 -96 -336 -161 -110 -101 -297 -380 -378 -563 -20
-46 -61 -183 -72 -240 -4 -25 -8 -47 -9 -50 -1 -3 -5 -30 -9 -60 -5 -30 -10
-64 -12 -75 -2 -11 -6 -49 -9 -85 -3 -36 -8 -83 -11 -105 -7 -50 -33 -231 -39
-267 -3 -16 -7 -41 -10 -58 -3 -16 -7 -45 -10 -62 -3 -18 -15 -76 -26 -128
-11 -52 -23 -106 -25 -120 -13 -62 -116 -333 -135 -354 -5 -6 -9 -16 -9 -24 0
-7 -18 -50 -39 -95 -42 -87 -140 -198 -229 -259 -98 -68 -268 -131 -527 -198
-160 -42 -181 -45 -320 -56 -49 -4 -103 -8 -120 -10 -16 -1 -51 -3 -76 -3 -84
-2 -83 -1 -88 -238 -9 -545 -3 -662 37 -664 9 0 26 -3 37 -5 60 -13 449 -6
531 10 12 3 39 7 60 10 157 25 232 38 272 47 26 6 58 13 72 15 49 9 257 77
370 121 177 69 278 143 519 383 129 128 232 332 280 555 12 55 33 136 46 180
25 83 31 121 40 240 3 39 8 88 10 110 4 41 11 115 20 228 3 34 8 78 10 97 3
19 8 69 10 110 14 199 18 218 86 428 82 250 155 347 326 431 93 46 193 64 428
76 103 5 213 14 268 20 100 13 126 16 174 26 96 19 95 16 98 245 4 223 14 528
19 559 7 42 -45 100 -99 110 -45 9 -210 11 -295 4z"/>
<path d="M4688 4025 c-2 -2 -46 -6 -98 -9 -89 -6 -116 -9 -222 -21 -24 -2 -70
-7 -103 -10 -63 -6 -126 -14 -160 -22 -11 -2 -31 -6 -45 -9 -376 -77 -505
-125 -612 -227 -98 -94 -246 -303 -338 -480 -67 -128 -129 -373 -146 -577 -2
-25 -6 -65 -9 -90 -10 -85 -25 -195 -30 -220 -2 -14 -13 -78 -24 -142 -11 -64
-23 -127 -26 -140 -2 -13 -7 -34 -9 -48 -7 -46 -37 -164 -53 -210 -40 -112
-168 -409 -193 -445 -39 -56 -150 -163 -207 -198 -74 -46 -256 -122 -342 -143
-9 -2 -83 -21 -166 -44 -82 -22 -177 -42 -210 -45 -33 -3 -80 -8 -105 -10 -25
-3 -81 -7 -125 -10 -118 -8 -144 -14 -155 -35 -5 -10 -9 -90 -9 -182 0 -89 -3
-208 -7 -263 -9 -126 -9 -110 0 -243 8 -126 14 -163 25 -175 33 -34 556 -21
736 18 340 73 339 72 428 101 91 29 260 95 321 125 64 33 171 117 286 225 148
140 168 161 192 208 11 22 36 61 55 86 60 77 95 177 164 460 57 235 56 229 64
335 6 81 13 162 20 225 2 19 7 71 10 115 3 44 8 96 10 115 2 19 7 67 10 105
10 111 15 146 25 206 15 84 93 308 135 388 66 125 185 223 326 269 91 29 116
33 339 47 41 3 102 7 135 10 33 2 96 7 140 10 165 12 239 28 262 56 7 9 13
104 17 274 3 143 9 326 12 406 l6 146 -48 32 c-26 17 -61 32 -78 33 -68 3
-196 5 -198 3z"/>
</g>
</svg>
